<svg id="Layer_1" data-name="Layer 1" xmlns="http://www.w3.org/2000/svg" viewBox="0 0 143.2 115.9">
  <defs>
    <style>
      .cls-1 {
        isolation: isolate;
      }

      .cls-2 {
        fill: #938061;
      }

      .cls-3 {
        fill: #6e5d55;
      }

      .cls-4 {
        fill: #73603e;
      }

      .cls-5 {
        fill: #00335e;
      }
    </style>
  </defs>
  <title>RST-logo-clear</title>
  <g class="cls-1">
    <polygon class="cls-2" points="6.9 3.8 35.7 19.1 35.5 90.4 6.9 115.9 6.9 3.8"/>
    <polygon class="cls-3" points="6.9 3.8 0 0 28.8 15.4 35.7 19.1 6.9 3.8"/>
    <polygon class="cls-4" points="6.9 115.9 0.1 112.2 0 0 6.9 3.8 6.9 115.9"/>
  </g>
  <g>
    <path class="cls-5" d="M18.5,37.7H40.1c10.1,0,10.1,0,12,1.1,2.2,1.4,2.9,3.3,2.9,8.4,0,4.4-.5,6-2,7.2a5.66,5.66,0,0,1-3.4,1.2c4.5,0.5,5.3,1.8,5.2,8.6v2.7H46V65.4c0-3.3-.2-4.4-0.9-5.1s-1.3-.8-5-0.8H27.4v7.4H18.5V37.7ZM40,52.3c4.5-.1,4.5-0.1,5.1-0.5s1-1.3,1-3.2-0.4-2.8-1.3-3.2c-0.6-.3-0.7-0.3-4.8-0.3H27.4v7.2H40Z" transform="translate(-1 -1.3)"/>
    <path class="cls-5" d="M74.5,57.3c0,1.8.2,2.3,0.9,2.8s1.8,0.6,8.1.6c9.6,0,9.6,0,9.6-2.6,0-1.7-.7-2.2-3.5-2.2l-4.7-.2-2.3-.1c-2.1-.1-4.4-0.2-7.1-0.3-7.3-.2-9.3-2.1-9.3-8.5,0-5.6,1.6-8.1,5.6-9,1.8-.4,5.7-0.5,12.9-0.5,8.4,0,11.5.4,13.6,1.8,1.7,1.1,2.5,3,2.5,6.4V47H92c-0.1-1.6-.2-2-0.9-2.4s-1.8-.5-8.5-0.5c-7.3,0-7.9.2-7.9,2.3A1.64,1.64,0,0,0,76,48.3c0.8,0.2,3.2.4,9.4,0.5,9.7,0.3,11.6.5,13.5,1.7s2.8,3.3,2.8,7.2c0,5.3-1.2,7.8-4.3,8.9-1.8.7-5.5,0.9-14.2,0.9-9.1,0-12.7-.4-14.7-1.7s-2.7-3-2.7-6.9V57.4h8.7V57.3Z" transform="translate(-1 -1.3)"/>
    <path class="cls-5" d="M144.2,37.7v7.5H131.1V67.1h-9.4V45.2H108.6V37.7h35.6Z" transform="translate(-1 -1.3)"/>
  </g>
</svg>
